<?xml version="1.0" encoding="UTF-8" standalone="no"?>
<svg width="61px" height="42px" viewBox="0 0 61 42" version="1.1" xmlns="http://www.w3.org/2000/svg" xmlns:xlink="http://www.w3.org/1999/xlink">
    <!-- Generator: Sketch 39.1 (31720) - http://www.bohemiancoding.com/sketch -->
    <title>Group</title>
    <desc>Created with Sketch.</desc>
    <defs></defs>
    <g id="Site" stroke="none" stroke-width="1" fill="none" fill-rule="evenodd">
        <g id="splash-v1" transform="translate(-690.000000, -966.000000)" fill="#000000">
            <g id="Group-2" transform="translate(200.000000, 831.000000)">
                <g id="Group-4-Copy" transform="translate(380.000000, 135.000000)">
                    <g id="Group" transform="translate(140.000000, 21.000000) rotate(90.000000) translate(-140.000000, -21.000000) translate(119.500000, -9.500000)">
                        <path d="M12.3,36.7711628 L1.36666667,36.7711628 C0.612266667,36.7711628 2.55351296e-15,36.1695814 2.55351296e-15,35.4223256 L2.55351296e-15,24.6316279 C2.55351296e-15,23.8870698 0.612266667,23.2827907 1.36666667,23.2827907 L12.3,23.2827907 C13.0544,23.2827907 13.6666667,23.8870698 13.6666667,24.6316279 L13.6666667,35.4223256 C13.6666667,36.1695814 13.0544,36.7711628 12.3,36.7711628 L12.3,36.7711628 Z M11.7933908,34.9223256 L11.7933908,25.1316279 L1.87327586,25.1316279 L1.87327586,34.9223256 L11.7933908,34.9223256 Z" id="Shape"></path>
                        <path d="M39.6333333,15.1897674 L28.7,15.1897674 C27.9483333,15.1897674 27.3333333,14.5854884 27.3333333,13.8409302 L27.3333333,3.05023256 C27.3333333,2.30567442 27.9483333,1.70139535 28.7,1.70139535 L39.6333333,1.70139535 C40.385,1.70139535 41,2.30567442 41,3.05023256 L41,13.8409302 C41,14.588186 40.385,15.1897674 39.6333333,15.1897674 L39.6333333,15.1897674 Z M29.2066092,13.3409302 L39.1267241,13.3409302 L39.1267241,3.55023256 L29.2066092,3.55023256 L29.2066092,13.3409302 L29.2066092,13.3409302 Z" id="Shape"></path>
                        <path d="M39.6333333,58.3525581 L28.7,58.3525581 C27.9483333,58.3525581 27.3333333,57.7509767 27.3333333,57.0037209 L27.3333333,46.2130233 C27.3333333,45.4711628 27.9483333,44.864186 28.7,44.864186 L39.6333333,44.864186 C40.385,44.864186 41,45.4711628 41,46.2130233 L41,57.0037209 C41,57.7509767 40.385,58.3525581 39.6333333,58.3525581 L39.6333333,58.3525581 Z M29.2066092,56.5037209 L39.1267241,56.5037209 L39.1267241,46.7130233 L29.2066092,46.7130233 L29.2066092,56.5037209 L29.2066092,56.5037209 Z" id="Shape"></path>
                        <polygon id="Shape" points="8.2 36.7711628 8.2 52.9572093 6.46666667 52.9572093 6.46666667 36.7711628"></polygon>
                        <polygon id="Shape" points="8.2 7.09674419 8.2 23.2827907 6.46666667 23.2827907 6.46666667 7.09674419"></polygon>
                        <path d="M7.1,8.09302326 C4.83953333,8.09302326 3,6.27748837 3,4.04651163 C3,1.81553488 4.83953333,0 7.1,0 C9.36046667,0 11.2,1.81553488 11.2,4.04651163 C11.2,6.2747907 9.36046667,8.09302326 7.1,8.09302326 L7.1,8.09302326 Z M7.1,1.84883721 C5.87084828,1.84883721 4.87327586,2.8377907 4.87327586,4.04651163 C4.87327586,5.25962791 5.87084828,6.24418605 7.1,6.24418605 C8.32915172,6.24418605 9.32672414,5.25962791 9.32672414,4.04651163 C9.32672414,2.829 8.32915172,1.84883721 7.1,1.84883721 L7.1,1.84883721 Z" id="Shape"></path>
                        <path d="M7.1,60.0930233 C4.83953333,60.0930233 3,58.2747907 3,56.0465116 C3,53.8128372 4.83953333,52 7.1,52 C9.36046667,52 11.2,53.8128372 11.2,56.0465116 C11.2,58.2747907 9.36046667,60.0930233 7.1,60.0930233 L7.1,60.0930233 Z M7.1,53.8488372 C5.87084828,53.8488372 4.87327586,54.8377907 4.87327586,56.0465116 C4.87327586,57.2552326 5.87084828,58.244186 7.1,58.244186 C8.32915172,58.244186 9.32672414,57.2552326 9.32672414,56.0465116 C9.32672414,54.829 8.32915172,53.8488372 7.1,53.8488372 L7.1,53.8488372 Z" id="Shape"></path>
                        <path d="M9.8646,24.9769302 L7.22146667,24.2890233 C9.85093333,14.4533023 18.8928,7.58502326 29.2111333,7.58502326 L29.2111333,9.28269767 C20.1337333,9.28269767 11.1797333,16.328186 8.8646,24.9769302 L9.8646,24.9769302 Z" id="Shape"></path>
                        <path d="M29.2138667,52.4716279 C18.8928,52.4716279 9.8482,45.5952558 7.2242,35.7541395 L8.86733333,35.0689302 C11.177,43.7257674 20.1337333,50.7739535 29.2220667,50.7739535 L29.2220667,52.4716279 L29.2138667,52.4716279 L29.2138667,52.4716279 Z" id="Shape"></path>
                    </g>
                </g>
            </g>
        </g>
    </g>
</svg>