<?xml version="1.0" encoding="UTF-8" standalone="no"?>
<svg width="57px" height="61px" viewBox="0 0 57 61" version="1.1" xmlns="http://www.w3.org/2000/svg" xmlns:xlink="http://www.w3.org/1999/xlink">
    <!-- Generator: Sketch 39.1 (31720) - http://www.bohemiancoding.com/sketch -->
    <title>Group</title>
    <desc>Created with Sketch.</desc>
    <defs></defs>
    <g id="Site" stroke="none" stroke-width="1" fill="none" fill-rule="evenodd">
        <g id="splash-v1" transform="translate(-312.000000, -957.000000)" fill="#000000">
            <g id="Group-2" transform="translate(200.000000, 831.000000)">
                <g id="Group-4" transform="translate(0.000000, 126.000000)">
                    <g id="Group" transform="translate(112.000000, 0.000000)">
                        <path d="M53.96,23.6375 L47.87924,23.6375 L47.87924,9.15 C47.87924,7.4725 46.512,6.1 44.83924,6.1 L34.95924,6.1 L33.43924,6.1 C31.768,6.1 30.39924,4.7275 30.39924,3.05 C30.39924,1.3725 29.032,0 27.35924,0 L20.52,0 C18.848,0 17.48,1.3725 17.48,3.05 C17.48,4.7275 16.112,6.1 14.44,6.1 L12.92,6.1 L3.04,6.1 C1.368,6.1 0,7.4725 0,9.15 L0,53.375 C0,55.0525 1.368,56.425 3.04,56.425 L25.84,56.425 L25.84,57.95 C25.84,59.6275 27.208,61 28.88,61 L44.84,61 C46.512,61 48.88852,60.0720375 50.12048,58.9389625 L54.75952,54.6735375 C55.99148,53.5404625 57,51.24 57,49.5625 L57,26.6875 C57,25.01 55.632,23.6375 53.96,23.6375 L53.96,23.6375 Z M19.76,3.05 C19.76,2.636725 20.10808,2.2875 20.52,2.2875 L27.35924,2.2875 C27.77192,2.2875 28.11924,2.636725 28.11924,3.05 C28.11924,5.9924875 30.5064,8.3875 33.43924,8.3875 L34.95924,8.3875 C35.37192,8.3875 35.71924,8.736725 35.71924,9.15 L35.71924,10.675 C35.71924,11.088275 35.37192,11.4375 34.95924,11.4375 L33.43924,11.4375 L27.35924,11.4375 L20.52,11.4375 L14.44,11.4375 L12.92,11.4375 C12.50808,11.4375 12.16,11.088275 12.16,10.675 L12.16,9.15 C12.16,8.736725 12.50808,8.3875 12.92,8.3875 L14.44,8.3875 C17.3736,8.3875 19.76,5.9924875 19.76,3.05 L19.76,3.05 Z M3.04,54.1375 C2.62808,54.1375 2.28,53.788275 2.28,53.375 L2.28,9.15 C2.28,8.736725 2.62808,8.3875 3.04,8.3875 L9.98868,8.3875 C9.92484,8.6322625 9.88,8.88465 9.88,9.15 L9.88,10.675 C9.88,12.3525 11.248,13.725 12.92,13.725 L14.44,13.725 L20.52,13.725 L27.35924,13.725 L33.43924,13.725 L34.95924,13.725 C36.632,13.725 37.99924,12.3525 37.99924,10.675 L37.99924,9.15 C37.99924,8.88465 37.9544,8.6322625 37.89056,8.3875 L44.83924,8.3875 C45.25192,8.3875 45.59924,8.736725 45.59924,9.15 L45.59924,23.6375 L28.88,23.6375 C27.208,23.6375 25.84,25.01 25.84,26.6875 L25.84,54.1375 L3.04,54.1375 L3.04,54.1375 Z M28.12,57.95 L28.12,26.6875 C28.12,26.274225 28.46808,25.925 28.88,25.925 L53.96,25.925 C54.37192,25.925 54.72,26.274225 54.72,26.6875 L54.72,49.5625 L49.01012,49.5625 C46.70352,49.567075 44.83544,51.4420625 44.83012,53.75625 L44.83012,58.7125 L28.88,58.7125 C28.46808,58.7125 28.12,58.363275 28.12,57.95 L28.12,57.95 Z M48.58072,57.2523125 C48.23036,57.5740875 47.6938,57.884425 47.11012,58.1383375 L47.11012,53.75625 C47.11088,53.2324125 47.3214,52.7611875 47.66948,52.4104375 C48.01908,52.0612125 48.48952,51.85 49.01012,51.85 L54.036,51.85 C53.7928,52.312075 53.50704,52.7230625 53.219,52.9868875 L48.58072,57.2523125 L48.58072,57.2523125 Z" id="Shape"></path>
                        <path d="M48.64,41.55625 C48.64,40.9241375 48.12928,40.4125 47.5,40.4125 L35.34,40.4125 C34.71072,40.4125 34.2,40.9241375 34.2,41.55625 C34.2,42.1883625 34.71072,42.7 35.34,42.7 L47.5,42.7 C48.12928,42.7 48.64,42.1883625 48.64,41.55625 Z" id="Shape"></path>
                        <path d="M35.34,35.075 L47.5,35.075 C48.12928,35.075 48.64,34.5633625 48.64,33.93125 C48.64,33.2991375 48.12928,32.7875 47.5,32.7875 L35.34,32.7875 C34.71072,32.7875 34.2,33.2991375 34.2,33.93125 C34.2,34.5633625 34.71072,35.075 35.34,35.075 L35.34,35.075 Z" id="Shape"></path>
                    </g>
                </g>
            </g>
        </g>
    </g>
</svg>